<svg id="Layer_1" data-name="Layer 1" xmlns="http://www.w3.org/2000/svg" xmlns:xlink="http://www.w3.org/1999/xlink" viewBox="0 0 500 500"><defs><style>.cls-1{fill:#fff;}.cls-1,.cls-10,.cls-11,.cls-12,.cls-13,.cls-14,.cls-15,.cls-16,.cls-17,.cls-18,.cls-19,.cls-2,.cls-20,.cls-21,.cls-22,.cls-23,.cls-24,.cls-25,.cls-3,.cls-4,.cls-5,.cls-6,.cls-7,.cls-8,.cls-9{stroke:#ccc;stroke-miterlimit:10;}.cls-2{fill:url(#radial-gradient);}.cls-3{fill:url(#radial-gradient-2);}.cls-4{fill:url(#radial-gradient-3);}.cls-5{fill:url(#radial-gradient-4);}.cls-6{fill:url(#radial-gradient-5);}.cls-7{fill:url(#radial-gradient-6);}.cls-8{fill:url(#radial-gradient-7);}.cls-9{fill:url(#radial-gradient-8);}.cls-10{fill:url(#radial-gradient-9);}.cls-11{fill:url(#radial-gradient-10);}.cls-12{fill:url(#radial-gradient-11);}.cls-13{fill:url(#radial-gradient-12);}.cls-14{fill:url(#radial-gradient-13);}.cls-15{fill:url(#radial-gradient-14);}.cls-16{fill:url(#radial-gradient-15);}.cls-17{fill:url(#radial-gradient-16);}.cls-18{fill:url(#radial-gradient-17);}.cls-19{fill:url(#radial-gradient-18);}.cls-20{fill:url(#radial-gradient-19);}.cls-21{fill:url(#radial-gradient-20);}.cls-22{fill:url(#radial-gradient-21);}.cls-23{fill:url(#radial-gradient-22);}.cls-24{fill:url(#radial-gradient-23);}.cls-25{fill:url(#radial-gradient-24);}</style><radialGradient id="radial-gradient" cx="250" cy="157.5" r="40" gradientUnits="userSpaceOnUse"><stop offset="0" stop-color="#1e88e5"/><stop offset="1" stop-color="#1976d2"/></radialGradient><radialGradient id="radial-gradient-2" cy="342.5" r="40" xlink:href="#radial-gradient"/><radialGradient id="radial-gradient-3" cx="250" cy="65" r="40" gradientUnits="userSpaceOnUse"><stop offset="0" stop-color="#4dd0e1"/><stop offset="1" stop-color="#00bcd4"/></radialGradient><radialGradient id="radial-gradient-4" cy="435" r="40" xlink:href="#radial-gradient-3"/><radialGradient id="radial-gradient-5" cx="65" cy="65" r="40" gradientUnits="userSpaceOnUse"><stop offset="0" stop-color="#ffee58"/><stop offset="1" stop-color="#ffeb3b"/></radialGradient><radialGradient id="radial-gradient-6" cy="157.5" r="40" xlink:href="#radial-gradient-5"/><radialGradient id="radial-gradient-7" cy="250" r="40" xlink:href="#radial-gradient-5"/><radialGradient id="radial-gradient-8" cy="342.5" r="40" xlink:href="#radial-gradient-5"/><radialGradient id="radial-gradient-9" cy="435" r="40" xlink:href="#radial-gradient-5"/><radialGradient id="radial-gradient-10" cx="157.5" r="40" xlink:href="#radial-gradient-5"/><radialGradient id="radial-gradient-11" cx="157.5" cy="250" r="40" xlink:href="#radial-gradient-5"/><radialGradient id="radial-gradient-12" cx="157.5" cy="435" r="40" xlink:href="#radial-gradient-5"/><radialGradient id="radial-gradient-13" cx="342.5" r="40" xlink:href="#radial-gradient-5"/><radialGradient id="radial-gradient-14" cx="342.5" cy="250" r="40" xlink:href="#radial-gradient-5"/><radialGradient id="radial-gradient-15" cx="342.5" cy="435" r="40" xlink:href="#radial-gradient-5"/><radialGradient id="radial-gradient-16" cx="435" cy="157.5" r="40" xlink:href="#radial-gradient-5"/><radialGradient id="radial-gradient-17" cx="435" cy="342.5" r="40" xlink:href="#radial-gradient-5"/><radialGradient id="radial-gradient-18" cx="157.5" cy="157.5" r="40" gradientUnits="userSpaceOnUse"><stop offset="0" stop-color="#ef5350"/><stop offset="1" stop-color="#f44336"/></radialGradient><radialGradient id="radial-gradient-19" cy="342.5" r="40" xlink:href="#radial-gradient-18"/><radialGradient id="radial-gradient-20" cx="342.5" r="40" xlink:href="#radial-gradient-18"/><radialGradient id="radial-gradient-21" cx="342.5" cy="342.5" r="40" xlink:href="#radial-gradient-18"/><radialGradient id="radial-gradient-22" cx="435" cy="65" r="40" xlink:href="#radial-gradient-18"/><radialGradient id="radial-gradient-23" cx="435" cy="250" r="40" xlink:href="#radial-gradient-18"/><radialGradient id="radial-gradient-24" cx="435" cy="435" r="40" xlink:href="#radial-gradient-18"/></defs><title>HBI Logo</title><rect class="cls-1" x="210" y="210" width="80" height="80" rx="3" ry="3"/><rect class="cls-2" x="210" y="117.5" width="80" height="80" rx="3" ry="3"/><rect class="cls-3" x="210" y="302.5" width="80" height="80" rx="3" ry="3"/><rect class="cls-4" x="210" y="25" width="80" height="80" rx="3" ry="3"/><rect class="cls-5" x="210" y="395" width="80" height="80" rx="3" ry="3"/><rect class="cls-6" x="25" y="25" width="80" height="80" rx="3" ry="3"/><rect class="cls-7" x="25" y="117.5" width="80" height="80" rx="3" ry="3"/><rect class="cls-8" x="25" y="210" width="80" height="80" rx="3" ry="3"/><rect class="cls-9" x="25" y="302.5" width="80" height="80" rx="3" ry="3"/><rect class="cls-10" x="25" y="395" width="80" height="80" rx="3" ry="3"/><rect class="cls-11" x="117.5" y="25" width="80" height="80" rx="3" ry="3"/><rect class="cls-12" x="117.5" y="210" width="80" height="80" rx="3" ry="3"/><rect class="cls-13" x="117.5" y="395" width="80" height="80" rx="3" ry="3"/><rect class="cls-14" x="302.5" y="25" width="80" height="80" rx="3" ry="3"/><rect class="cls-15" x="302.5" y="210" width="80" height="80" rx="3" ry="3"/><rect class="cls-16" x="302.5" y="395" width="80" height="80" rx="3" ry="3"/><rect class="cls-17" x="395" y="117.5" width="80" height="80" rx="3" ry="3"/><rect class="cls-18" x="395" y="302.5" width="80" height="80" rx="3" ry="3"/><rect class="cls-19" x="117.5" y="117.5" width="80" height="80" rx="3" ry="3"/><rect class="cls-20" x="117.5" y="302.5" width="80" height="80" rx="3" ry="3"/><rect class="cls-21" x="302.5" y="117.5" width="80" height="80" rx="3" ry="3"/><rect class="cls-22" x="302.5" y="302.5" width="80" height="80" rx="3" ry="3"/><rect class="cls-23" x="395" y="25" width="80" height="80" rx="3" ry="3"/><rect class="cls-24" x="395" y="210" width="80" height="80" rx="3" ry="3"/><rect class="cls-25" x="395" y="395" width="80" height="80" rx="3" ry="3"/></svg>