<svg id="Layer_1" data-name="Layer 1" xmlns="http://www.w3.org/2000/svg" xmlns:xlink="http://www.w3.org/1999/xlink" viewBox="0 0 1128.11 251.62"><defs><style>.cls-1,.cls-26{fill:#fff;}.cls-1,.cls-10,.cls-11,.cls-12,.cls-13,.cls-14,.cls-15,.cls-16,.cls-17,.cls-18,.cls-19,.cls-2,.cls-20,.cls-21,.cls-22,.cls-23,.cls-24,.cls-25,.cls-3,.cls-4,.cls-5,.cls-6,.cls-7,.cls-8,.cls-9{stroke:#ccc;}.cls-1,.cls-10,.cls-11,.cls-12,.cls-13,.cls-14,.cls-15,.cls-16,.cls-17,.cls-18,.cls-19,.cls-2,.cls-20,.cls-21,.cls-22,.cls-23,.cls-24,.cls-25,.cls-26,.cls-3,.cls-4,.cls-5,.cls-6,.cls-7,.cls-8,.cls-9{stroke-miterlimit:10;}.cls-2{fill:url(#radial-gradient);}.cls-3{fill:url(#radial-gradient-2);}.cls-4{fill:url(#radial-gradient-3);}.cls-5{fill:url(#radial-gradient-4);}.cls-6{fill:url(#radial-gradient-5);}.cls-7{fill:url(#radial-gradient-6);}.cls-8{fill:url(#radial-gradient-7);}.cls-9{fill:url(#radial-gradient-8);}.cls-10{fill:url(#radial-gradient-9);}.cls-11{fill:url(#radial-gradient-10);}.cls-12{fill:url(#radial-gradient-11);}.cls-13{fill:url(#radial-gradient-12);}.cls-14{fill:url(#radial-gradient-13);}.cls-15{fill:url(#radial-gradient-14);}.cls-16{fill:url(#radial-gradient-15);}.cls-17{fill:url(#radial-gradient-16);}.cls-18{fill:url(#radial-gradient-17);}.cls-19{fill:url(#radial-gradient-18);}.cls-20{fill:url(#radial-gradient-19);}.cls-21{fill:url(#radial-gradient-20);}.cls-22{fill:url(#radial-gradient-21);}.cls-23{fill:url(#radial-gradient-22);}.cls-24{fill:url(#radial-gradient-23);}.cls-25{fill:url(#radial-gradient-24);}.cls-26{font-size:250px;stroke:#aaa;font-family:Amble-Regular, Amble;}</style><radialGradient id="radial-gradient" cx="125.14" cy="83.59" r="17.82" gradientTransform="translate(-0.22 -0.22)" gradientUnits="userSpaceOnUse"><stop offset="0" stop-color="#1e88e5"/><stop offset="1" stop-color="#1976d2"/></radialGradient><radialGradient id="radial-gradient-2" cx="125.14" cy="166" r="17.82" xlink:href="#radial-gradient"/><radialGradient id="radial-gradient-3" cx="125.14" cy="42.39" r="17.82" gradientTransform="translate(-0.22 -0.22)" gradientUnits="userSpaceOnUse"><stop offset="0" stop-color="#4dd0e1"/><stop offset="1" stop-color="#00bcd4"/></radialGradient><radialGradient id="radial-gradient-4" cx="125.14" cy="207.2" r="17.82" xlink:href="#radial-gradient-3"/><radialGradient id="radial-gradient-5" cx="42.73" cy="42.39" r="17.82" gradientTransform="translate(-0.22 -0.22)" gradientUnits="userSpaceOnUse"><stop offset="0" stop-color="#ffee58"/><stop offset="1" stop-color="#ffeb3b"/></radialGradient><radialGradient id="radial-gradient-6" cx="42.73" cy="83.59" r="17.82" xlink:href="#radial-gradient-5"/><radialGradient id="radial-gradient-7" cx="42.73" cy="124.8" r="17.82" xlink:href="#radial-gradient-5"/><radialGradient id="radial-gradient-8" cx="42.73" cy="166" r="17.82" xlink:href="#radial-gradient-5"/><radialGradient id="radial-gradient-9" cx="42.73" cy="207.2" r="17.82" xlink:href="#radial-gradient-5"/><radialGradient id="radial-gradient-10" cx="83.93" cy="42.39" r="17.82" xlink:href="#radial-gradient-5"/><radialGradient id="radial-gradient-11" cx="83.93" cy="124.8" r="17.82" xlink:href="#radial-gradient-5"/><radialGradient id="radial-gradient-12" cx="83.93" cy="207.2" r="17.82" xlink:href="#radial-gradient-5"/><radialGradient id="radial-gradient-13" cx="166.34" cy="42.39" r="17.82" xlink:href="#radial-gradient-5"/><radialGradient id="radial-gradient-14" cx="166.34" cy="124.8" r="17.82" xlink:href="#radial-gradient-5"/><radialGradient id="radial-gradient-15" cx="166.34" cy="207.2" r="17.82" xlink:href="#radial-gradient-5"/><radialGradient id="radial-gradient-16" cx="207.54" cy="83.59" r="17.82" xlink:href="#radial-gradient-5"/><radialGradient id="radial-gradient-17" cx="207.54" cy="166" r="17.82" xlink:href="#radial-gradient-5"/><radialGradient id="radial-gradient-18" cx="83.93" cy="83.59" r="17.82" gradientTransform="translate(-0.22 -0.22)" gradientUnits="userSpaceOnUse"><stop offset="0" stop-color="#ef5350"/><stop offset="1" stop-color="#f44336"/></radialGradient><radialGradient id="radial-gradient-19" cx="83.93" cy="166" r="17.82" xlink:href="#radial-gradient-18"/><radialGradient id="radial-gradient-20" cx="166.34" cy="83.59" r="17.82" xlink:href="#radial-gradient-18"/><radialGradient id="radial-gradient-21" cx="166.34" cy="166" r="17.82" xlink:href="#radial-gradient-18"/><radialGradient id="radial-gradient-22" cx="207.54" cy="42.39" r="17.82" xlink:href="#radial-gradient-18"/><radialGradient id="radial-gradient-23" cx="207.54" cy="124.8" r="17.82" xlink:href="#radial-gradient-18"/><radialGradient id="radial-gradient-24" cx="207.54" cy="207.2" r="17.82" xlink:href="#radial-gradient-18"/></defs><title>HBI Logo</title><rect class="cls-1" x="106.85" y="106.52" width="35.56" height="35.56" rx="1.33" ry="1.33"/><rect class="cls-2" x="106.85" y="65.4" width="35.56" height="35.56" rx="1.33" ry="1.33"/><rect class="cls-3" x="106.85" y="147.63" width="35.56" height="35.56" rx="1.33" ry="1.33"/><rect class="cls-4" x="106.85" y="24.29" width="35.56" height="35.56" rx="1.33" ry="1.33"/><rect class="cls-5" x="106.85" y="188.74" width="35.56" height="35.56" rx="1.33" ry="1.33"/><rect class="cls-6" x="24.63" y="24.29" width="35.56" height="35.56" rx="1.33" ry="1.33"/><rect class="cls-7" x="24.63" y="65.4" width="35.56" height="35.56" rx="1.33" ry="1.33"/><rect class="cls-8" x="24.63" y="106.52" width="35.56" height="35.56" rx="1.33" ry="1.33"/><rect class="cls-9" x="24.63" y="147.63" width="35.56" height="35.56" rx="1.33" ry="1.33"/><rect class="cls-10" x="24.63" y="188.74" width="35.56" height="35.56" rx="1.33" ry="1.33"/><rect class="cls-11" x="65.74" y="24.29" width="35.56" height="35.56" rx="1.33" ry="1.33"/><rect class="cls-12" x="65.74" y="106.52" width="35.56" height="35.56" rx="1.33" ry="1.33"/><rect class="cls-13" x="65.74" y="188.74" width="35.56" height="35.56" rx="1.33" ry="1.33"/><rect class="cls-14" x="147.97" y="24.29" width="35.56" height="35.56" rx="1.33" ry="1.33"/><rect class="cls-15" x="147.97" y="106.52" width="35.56" height="35.56" rx="1.33" ry="1.33"/><rect class="cls-16" x="147.97" y="188.74" width="35.56" height="35.56" rx="1.33" ry="1.33"/><rect class="cls-17" x="189.08" y="65.4" width="35.56" height="35.56" rx="1.33" ry="1.33"/><rect class="cls-18" x="189.08" y="147.63" width="35.56" height="35.56" rx="1.33" ry="1.33"/><rect class="cls-19" x="65.74" y="65.4" width="35.56" height="35.56" rx="1.33" ry="1.33"/><rect class="cls-20" x="65.74" y="147.63" width="35.56" height="35.56" rx="1.33" ry="1.33"/><rect class="cls-21" x="147.97" y="65.4" width="35.56" height="35.56" rx="1.33" ry="1.33"/><rect class="cls-22" x="147.97" y="147.63" width="35.56" height="35.56" rx="1.33" ry="1.33"/><rect class="cls-23" x="189.08" y="24.29" width="35.56" height="35.56" rx="1.33" ry="1.33"/><rect class="cls-24" x="189.08" y="106.52" width="35.56" height="35.56" rx="1.33" ry="1.33"/><rect class="cls-25" x="189.08" y="188.74" width="35.56" height="35.56" rx="1.33" ry="1.33"/><text class="cls-26" transform="translate(285.03 194.12)">Gallery</text></svg>