<svg id="Layer_1" data-name="Layer 1" xmlns="http://www.w3.org/2000/svg" xmlns:xlink="http://www.w3.org/1999/xlink" viewBox="0 0 500 500"><defs><style>.cls-1{fill:#272727;}.cls-2,.cls-3{fill:#fff;}.cls-10,.cls-11,.cls-12,.cls-13,.cls-14,.cls-15,.cls-16,.cls-17,.cls-18,.cls-19,.cls-20,.cls-21,.cls-22,.cls-23,.cls-24,.cls-25,.cls-26,.cls-27,.cls-3,.cls-4,.cls-5,.cls-6,.cls-7,.cls-8,.cls-9{stroke:#ccc;stroke-miterlimit:10;}.cls-4{fill:url(#radial-gradient);}.cls-5{fill:url(#radial-gradient-2);}.cls-6{fill:url(#radial-gradient-3);}.cls-7{fill:url(#radial-gradient-4);}.cls-8{fill:url(#radial-gradient-5);}.cls-9{fill:url(#radial-gradient-6);}.cls-10{fill:url(#radial-gradient-7);}.cls-11{fill:url(#radial-gradient-8);}.cls-12{fill:url(#radial-gradient-9);}.cls-13{fill:url(#radial-gradient-10);}.cls-14{fill:url(#radial-gradient-11);}.cls-15{fill:url(#radial-gradient-12);}.cls-16{fill:url(#radial-gradient-13);}.cls-17{fill:url(#radial-gradient-14);}.cls-18{fill:url(#radial-gradient-15);}.cls-19{fill:url(#radial-gradient-16);}.cls-20{fill:url(#radial-gradient-17);}.cls-21{fill:url(#radial-gradient-18);}.cls-22{fill:url(#radial-gradient-19);}.cls-23{fill:url(#radial-gradient-20);}.cls-24{fill:url(#radial-gradient-21);}.cls-25{fill:url(#radial-gradient-22);}.cls-26{fill:url(#radial-gradient-23);}.cls-27{fill:url(#radial-gradient-24);}</style><radialGradient id="radial-gradient" cx="250" cy="214.03" r="15.56" gradientUnits="userSpaceOnUse"><stop offset="0" stop-color="#1e88e5"/><stop offset="1" stop-color="#1976d2"/></radialGradient><radialGradient id="radial-gradient-2" cy="285.97" r="15.56" xlink:href="#radial-gradient"/><radialGradient id="radial-gradient-3" cx="250" cy="178.06" r="15.56" gradientUnits="userSpaceOnUse"><stop offset="0" stop-color="#4dd0e1"/><stop offset="1" stop-color="#00bcd4"/></radialGradient><radialGradient id="radial-gradient-4" cy="321.94" r="15.56" xlink:href="#radial-gradient-3"/><radialGradient id="radial-gradient-5" cx="178.06" cy="178.06" r="15.56" gradientUnits="userSpaceOnUse"><stop offset="0" stop-color="#ffee58"/><stop offset="1" stop-color="#ffeb3b"/></radialGradient><radialGradient id="radial-gradient-6" cx="178.06" cy="214.03" r="15.56" xlink:href="#radial-gradient-5"/><radialGradient id="radial-gradient-7" cx="178.06" cy="250" r="15.56" xlink:href="#radial-gradient-5"/><radialGradient id="radial-gradient-8" cx="178.06" cy="285.97" r="15.56" xlink:href="#radial-gradient-5"/><radialGradient id="radial-gradient-9" cx="178.06" cy="321.94" r="15.56" xlink:href="#radial-gradient-5"/><radialGradient id="radial-gradient-10" cx="214.03" cy="178.06" r="15.56" xlink:href="#radial-gradient-5"/><radialGradient id="radial-gradient-11" cx="214.03" cy="250" r="15.56" xlink:href="#radial-gradient-5"/><radialGradient id="radial-gradient-12" cx="214.03" cy="321.94" r="15.56" xlink:href="#radial-gradient-5"/><radialGradient id="radial-gradient-13" cx="285.97" cy="178.06" r="15.56" xlink:href="#radial-gradient-5"/><radialGradient id="radial-gradient-14" cx="285.97" cy="250" r="15.56" xlink:href="#radial-gradient-5"/><radialGradient id="radial-gradient-15" cx="285.97" cy="321.94" r="15.56" xlink:href="#radial-gradient-5"/><radialGradient id="radial-gradient-16" cx="321.94" cy="214.03" r="15.56" xlink:href="#radial-gradient-5"/><radialGradient id="radial-gradient-17" cx="321.94" cy="285.97" r="15.56" xlink:href="#radial-gradient-5"/><radialGradient id="radial-gradient-18" cx="214.03" cy="214.03" r="15.56" gradientUnits="userSpaceOnUse"><stop offset="0" stop-color="#ef5350"/><stop offset="1" stop-color="#f44336"/></radialGradient><radialGradient id="radial-gradient-19" cx="214.03" cy="285.97" r="15.56" xlink:href="#radial-gradient-18"/><radialGradient id="radial-gradient-20" cx="285.97" cy="214.03" r="15.56" xlink:href="#radial-gradient-18"/><radialGradient id="radial-gradient-21" cx="285.97" cy="285.97" r="15.56" xlink:href="#radial-gradient-18"/><radialGradient id="radial-gradient-22" cx="321.94" cy="178.06" r="15.56" xlink:href="#radial-gradient-18"/><radialGradient id="radial-gradient-23" cx="321.94" cy="250" r="15.56" xlink:href="#radial-gradient-18"/><radialGradient id="radial-gradient-24" cx="321.94" cy="321.94" r="15.56" xlink:href="#radial-gradient-18"/></defs><title>HBI Gallery</title><rect class="cls-1" width="500" height="500"/><circle class="cls-2" cx="250" cy="250" r="175"/><rect class="cls-3" x="234.44" y="234.44" width="31.11" height="31.11" rx="1.17" ry="1.17"/><rect class="cls-4" x="234.44" y="198.47" width="31.11" height="31.11" rx="1.17" ry="1.17"/><rect class="cls-5" x="234.44" y="270.42" width="31.11" height="31.11" rx="1.17" ry="1.17"/><rect class="cls-6" x="234.44" y="162.5" width="31.11" height="31.11" rx="1.17" ry="1.17"/><rect class="cls-7" x="234.44" y="306.39" width="31.11" height="31.11" rx="1.17" ry="1.17"/><rect class="cls-8" x="162.5" y="162.5" width="31.11" height="31.11" rx="1.17" ry="1.17"/><rect class="cls-9" x="162.5" y="198.47" width="31.11" height="31.11" rx="1.17" ry="1.17"/><rect class="cls-10" x="162.5" y="234.44" width="31.11" height="31.11" rx="1.17" ry="1.17"/><rect class="cls-11" x="162.5" y="270.42" width="31.11" height="31.11" rx="1.17" ry="1.17"/><rect class="cls-12" x="162.5" y="306.39" width="31.11" height="31.11" rx="1.17" ry="1.17"/><rect class="cls-13" x="198.47" y="162.5" width="31.11" height="31.11" rx="1.17" ry="1.17"/><rect class="cls-14" x="198.47" y="234.44" width="31.11" height="31.11" rx="1.17" ry="1.17"/><rect class="cls-15" x="198.47" y="306.39" width="31.11" height="31.11" rx="1.17" ry="1.17"/><rect class="cls-16" x="270.42" y="162.5" width="31.11" height="31.11" rx="1.17" ry="1.17"/><rect class="cls-17" x="270.42" y="234.44" width="31.11" height="31.11" rx="1.17" ry="1.17"/><rect class="cls-18" x="270.42" y="306.39" width="31.11" height="31.11" rx="1.17" ry="1.17"/><rect class="cls-19" x="306.39" y="198.47" width="31.11" height="31.11" rx="1.17" ry="1.17"/><rect class="cls-20" x="306.39" y="270.42" width="31.11" height="31.11" rx="1.17" ry="1.17"/><rect class="cls-21" x="198.47" y="198.47" width="31.11" height="31.11" rx="1.17" ry="1.17"/><rect class="cls-22" x="198.47" y="270.42" width="31.11" height="31.11" rx="1.17" ry="1.17"/><rect class="cls-23" x="270.42" y="198.47" width="31.11" height="31.11" rx="1.17" ry="1.17"/><rect class="cls-24" x="270.42" y="270.42" width="31.11" height="31.11" rx="1.17" ry="1.17"/><rect class="cls-25" x="306.39" y="162.5" width="31.11" height="31.11" rx="1.17" ry="1.17"/><rect class="cls-26" x="306.39" y="234.44" width="31.11" height="31.11" rx="1.17" ry="1.17"/><rect class="cls-27" x="306.39" y="306.39" width="31.11" height="31.11" rx="1.17" ry="1.17"/></svg>