<svg id="Layer_1" data-name="Layer 1" xmlns="http://www.w3.org/2000/svg" viewBox="0 0 500 500"><defs><style>.cls-1{fill:#004d40;}.cls-2{fill:#fff;}</style></defs><title>Result System</title><rect class="cls-1" width="500" height="500"/><circle class="cls-2" cx="250" cy="250" r="137.5"/><path class="cls-1" d="M302.67,197.14a139.28,139.28,0,0,0-26.56,6.77A85.79,85.79,0,0,0,254,216.22a85.56,85.56,0,0,0-22.1-12.31,139.37,139.37,0,0,0-26.55-6.77l-5.91-1v77.05l4.62.44A91.57,91.57,0,0,1,230.6,280a62.09,62.09,0,0,1,19.84,12.75l3.54,3.51,3.56-3.51A62.09,62.09,0,0,1,277.38,280a92.29,92.29,0,0,1,26.56-6.44l4.62-.44v-77ZM298.42,264a98.85,98.85,0,0,0-24.9,6.63A75.35,75.35,0,0,0,254,282.31a74.62,74.62,0,0,0-19.5-11.65A99.66,99.66,0,0,0,209.58,264V208.21a115.51,115.51,0,0,1,18.69,5.17,75.05,75.05,0,0,1,22.43,13.21l3.28,2.8,3.3-2.8a75.05,75.05,0,0,1,22.43-13.21,116.31,116.31,0,0,1,18.71-5.17V264Z"/><path class="cls-1" d="M280.33,225.18c-10,4.28-19.24,9.62-25.68,15.74-6.36-6.77-15.75-12.16-26-16.17-2.62-1-5.29-1.94-8-2.78v10.65c1.44.51,2.89,1,4.32,1.59,10.93,4.26,20.5,10.1,25.2,17.29l4,6.07,4.35-5.77c5-6.59,14.8-12.57,25.85-17.29,1.27-.55,2.58-1.08,3.87-1.59V222.07C285.53,223,282.9,224.08,280.33,225.18ZM323.59,214c-1.5.11-3.09.25-4.77.46V280.5a98.71,98.71,0,0,0-36.06,9.59c-11.55,5.45-21.41,12.61-27.67,19.59-7.14-7.93-17.33-14.67-28.65-19.47-12-5.08-24.9-8-37.26-7.9V216.18c-1.8-.07-3.53-.1-5.19-.07l-5,.11v76.9l5.52-.49c12.17-1.09,25.6,1.64,38,6.88,12.1,5.11,22.61,12.6,28.43,21.21l4.39,6.49,4.13-6.67c4.33-7,14.69-15.2,27.65-21.32,11.2-5.29,24.17-8.9,36.75-8.76l5.15.05v-76.9Z"/></svg>