<svg id="Layer_1" data-name="Layer 1" xmlns="http://www.w3.org/2000/svg" viewBox="0 0 500 500"><defs><style>.cls-1{fill:#222;}.cls-2{fill:#fff;}</style></defs><title>Skeleton</title><circle class="cls-1" cx="250" cy="250" r="225"/><path class="cls-2" d="M145.15,358.35l22.5-26.1c22.5,22.05,53.1,36.45,86.4,36.45,40.5,0,63.9-19.35,63.9-46.35,0-31.5-22.95-40.5-52.65-53.1l-42.75-18.9c-29.25-11.7-63.45-32.4-63.45-76,0-45,40.5-78.3,96.75-78.3,36.9,0,69.3,14.85,90.9,36.45L327,156.75c-19.35-17.1-41.85-27.45-72.45-27.45-34.2,0-57.15,16.2-57.15,42.75,0,28.35,27.45,38.7,52.65,48.6l41.4,18.45c36.45,14.4,65.25,35.1,65.25,78.75,0,46.8-39.6,84.15-104.4,84.15C209.05,402,171.7,384.9,145.15,358.35Z"/></svg>