<svg id="Layer_1" data-name="Layer 1" xmlns="http://www.w3.org/2000/svg" xmlns:xlink="http://www.w3.org/1999/xlink" viewBox="0 0 500 500"><defs><style>.cls-1{fill:url(#radial-gradient);}.cls-2{fill:#fff;}.cls-3{fill:#2196f3;}</style><radialGradient id="radial-gradient" cx="250" cy="250" r="250" gradientUnits="userSpaceOnUse"><stop offset="0" stop-color="#42a5f5"/><stop offset="0.99" stop-color="#2196f3"/></radialGradient></defs><title>Gallery Images</title><rect class="cls-1" width="500" height="500"/><circle class="cls-2" cx="250" cy="250" r="137.5"/><path class="cls-3" d="M328.57,190.72a107.57,107.57,0,0,1-3.31,21.84H231.65c-8.31,33.3-29.07,66.56-29.07,99.84H174.49a3,3,0,0,1-3.06-3v-.1c1.5-39.52,30.83-79,32.33-118.56a3.22,3.22,0,0,1,3.18-3.12H325.51a3,3,0,0,1,3.06,3Z"/><path class="cls-3" d="M230.91,287.44h68.64a107.57,107.57,0,0,0-3.31,21.84,3.21,3.21,0,0,1-3.18,3.12H227.54A103.14,103.14,0,0,1,230.91,287.44Z"/><path class="cls-3" d="M248.59,237.52h68.64c-3.12,8.32-6.49,16.64-9.6,25H239C242.07,254.16,245.47,245.86,248.59,237.52Z"/></svg>