<svg id="Layer_1" data-name="Layer 1" xmlns="http://www.w3.org/2000/svg" xmlns:xlink="http://www.w3.org/1999/xlink" viewBox="0 0 500 500"><defs><style>.cls-1{fill:url(#radial-gradient);}.cls-2,.cls-5{fill:#fff;}.cls-2,.cls-3{stroke:#231f20;stroke-miterlimit:10;}.cls-3,.cls-4{fill:#272727;}.cls-6{fill:#282828;}</style><radialGradient id="radial-gradient" cx="250" cy="249.51" r="250" gradientUnits="userSpaceOnUse"><stop offset="0" stop-color="#232323"/><stop offset="1" stop-color="#272727"/></radialGradient></defs><title>Gallery Images</title><rect class="cls-1" y="-0.49" width="500" height="500"/><path class="cls-2" d="M250,249.51H387.5A137.49,137.49,0,0,1,250,387h0Z"/><path class="cls-3" d="M250,249.51H112.5A137.49,137.49,0,0,0,250,387h0Z"/><path class="cls-3" d="M250,249.51H387.5A137.5,137.5,0,0,0,250,112h0Z"/><path class="cls-2" d="M250,249.51H112.5A137.5,137.5,0,0,1,250,112h0Z"/><rect class="cls-4" x="163.51" y="181.35" width="60.81" height="14.03"/><rect class="cls-4" x="186.91" y="158.42" width="14.03" height="60.81"/><rect class="cls-4" x="287.79" y="311.25" width="60.81" height="14.03"/><rect class="cls-5" x="307.23" y="158.12" width="14.03" height="60.81" transform="translate(-41.27 277.43) rotate(-45)"/><rect class="cls-5" x="284.18" y="181.18" width="60.81" height="14.03" transform="translate(-40.94 277.57) rotate(-45)"/><rect class="cls-5" x="163.51" y="311.25" width="60.81" height="14.03"/><circle class="cls-5" cx="193.92" cy="295.8" r="8.78"/><circle class="cls-5" cx="193.92" cy="340.73" r="8.78"/><path class="cls-4" d="M247.9,127.55h-1.62V117.8l-1.64,1v-1.67l1.64-1.06h1.62Z"/><path class="cls-5" d="M251.42,126.15l4-5.35a4,4,0,0,0,.54-1,2.4,2.4,0,0,0,.19-.92h0a1.4,1.4,0,0,0-.4-1.06,1.86,1.86,0,0,0-2.29,0,1.92,1.92,0,0,0-.53,1.18h-1.67a4.2,4.2,0,0,1,.58-1.69,3,3,0,0,1,1.14-1.07,3.42,3.42,0,0,1,1.6-.37,4.08,4.08,0,0,1,1.76.36,2.39,2.39,0,0,1,1.11,1,3.17,3.17,0,0,1,.38,1.62h0a3.47,3.47,0,0,1-.25,1.28,5.83,5.83,0,0,1-.68,1.28L253.56,126h4.35v1.52h-6.49Z"/><polyline class="cls-5" points="250 167.42 258.45 247.15 250 255.59"/><polyline class="cls-4" points="250 167.42 241.55 247.15 250 255.59"/><polyline class="cls-5" points="363.06 249.51 252.37 245.29 243.92 249.51"/><polyline class="cls-4" points="363.06 249.51 252.37 253.74 243.92 249.51"/><polygon class="cls-5" points="243.17 254.88 131.69 291.75 242.24 252.17 244.06 253.06 243.17 254.88"/><circle class="cls-6" cx="250" cy="249.51" r="8.78"/></svg>